<?xml version="1.0" encoding="utf-8"?>
<!-- Generator: Adobe Illustrator 20.1.0, SVG Export Plug-In . SVG Version: 6.00 Build 0)  -->
<svg version="1.1" id="Layer_1" xmlns="http://www.w3.org/2000/svg" xmlns:xlink="http://www.w3.org/1999/xlink" x="0px" y="0px"
	 viewBox="0 0 618.6 173.1" style="enable-background:new 0 0 618.6 173.1;" xml:space="preserve">
<style type="text/css">
	.st0{fill:none;}
	.st1{fill:white;stroke:#efa656;stroke-width:2;}
	.st2{fill:#FFFFFF;stroke:#efa656;stroke-width:2;}
	.st3{font-family:'ArialNarrow';}
	.st4{font-size:129px;}

</style>
<g>
	<path class="st0" d="M618.6,152.9c0,5.5-4.5,10-10,10H10c-5.5,0-10-4.5-10-10V10C0,4.5,4.5,0,10,0h598.6c5.5,0,10,4.5,10,10V152.9z
		"/>
</g>
<g>
	<path class="st0" d="M135.1,49.5c9.8,27.6,19.6,55.2,29.4,82.9c-15.3-24.1-27.8-46.6-38.1-68c0,0,0,0,0,0c-1.5-1.7-2.9-3.3-4.3-4.9
		c-1.2-1.5-2.3-1.6-4.1-0.6c-4.2,2.5-8.8,4.3-13.3,6.2c-1.2,0.5-2.5,2-2.8,3.2c-1.9,7.8-4.1,15.5-6.5,23.1c-0.4,1.4-0.1,3,0.6,4.3
		c4.4,8,9.5,15.8,15.3,23.9c0.6,0.9,1.2,1.8,0.9,3c-8-4.8-15.5-9.6-22.5-14.5c-7.1,5-14.6,9.8-22.6,14.7c-0.6-0.2-0.4-0.2-1-0.3
		c3.4-4.7,6.7-9.4,9.7-14c2.7-4.2,5.5-8.4,7.6-12.7c0.7-1.5,0.6-3.3,0.2-4.9c-2.2-7.3-4.4-14.6-5.9-22c-0.4-2.1-1.3-3.2-3.7-4.1
		c-4.3-1.5-8.4-3.3-12.1-5.5c-2.2-1.3-3.4-1.2-4.9,0.6c-1.4,1.7-2.9,3.5-4.5,5.2c-10.2,21.2-22.6,43.5-37.7,67.3
		c9.8-27.6,19.6-55.2,29.4-82.9c0,0,0,0,0,0c0.2-0.6,0.4-1.2,0.6-1.8c0.7-1.9,1.6-3.8,2.5-5.5c2.6-4.5,6.6-5.4,11-3.1
		c6,2.8,9.6,4.4,19,6.3c1.9,0.3,2.8,0,3.3-2c1.2-5.1,3.5-9.3,6.7-13.2c1.3-1.6,1.8-4.1,2.6-6.6c1.3,8.1,8.5,12.7,9.4,21
		c0,0.4,1.7,0.9,2.6,0.7c6.4-1,12.6-2.9,18.2-5.9c5.3-2.9,10.7-2.5,13.6,5.9C134.1,46.8,134.6,48.2,135.1,49.5
		C135.1,49.5,135.1,49.5,135.1,49.5z"/>
	<path class="st1" d="M135.1,49.5c9.8,27.6,19.6,55.2,29.4,82.9c-15.3-24.1-27.8-46.6-38.1-68c0,0,0,0,0,0c-1.5-1.7-2.9-3.3-4.3-4.9
		c-1.2-1.5-2.3-1.6-4.1-0.6c-4.2,2.5-8.8,4.3-13.3,6.2c-1.2,0.5-2.5,2-2.8,3.2c-1.9,7.8-4.1,15.5-6.5,23.1c-0.4,1.4-0.1,3,0.6,4.3
		c4.4,8,9.5,15.8,15.3,23.9c0.6,0.9,1.2,1.8,0.9,3c-8-4.8-15.5-9.6-22.5-14.5c-7.1,5-14.6,9.8-22.6,14.7c-0.6-0.2-0.4-0.2-1-0.3
		c3.4-4.7,6.7-9.4,9.7-14c2.7-4.2,5.5-8.4,7.6-12.7c0.7-1.5,0.6-3.3,0.2-4.9c-2.2-7.3-4.4-14.6-5.9-22c-0.4-2.1-1.3-3.2-3.7-4.1
		c-4.3-1.5-8.4-3.3-12.1-5.5c-2.2-1.3-3.4-1.2-4.9,0.6c-1.4,1.7-2.9,3.5-4.5,5.2c-10.2,21.2-22.6,43.5-37.7,67.3
		c9.8-27.6,19.6-55.2,29.4-82.9c0,0,0,0,0,0c0.2-0.6,0.4-1.2,0.6-1.8c0.7-1.9,1.6-3.8,2.5-5.5c2.6-4.5,6.6-5.4,11-3.1
		c6,2.8,9.6,4.4,19,6.3c1.9,0.3,2.8,0,3.3-2c1.2-5.1,3.5-9.3,6.7-13.2c1.3-1.6,1.8-4.1,2.6-6.6c1.3,8.1,8.5,12.7,9.4,21
		c0,0.4,1.7,0.9,2.6,0.7c6.4-1,12.6-2.9,18.2-5.9c5.3-2.9,10.7-2.5,13.6,5.9C134.1,46.8,134.6,48.2,135.1,49.5
		C135.1,49.5,135.1,49.5,135.1,49.5z"/>
</g>
<text transform="matrix(1.1257 0 0 1 161.7453 132.5355)" class="st2 st3 st4">IGRATE</text>
</svg>
